Coordinates
version=1
nRows=10
nColumns=34
inDegrees=yes

Units are S.I. units (second, meters, Newtons, ...)
If the header above contains a line with 'inDegrees', this indicates whether rotational values are in degrees (yes) or radians (no).

endheader
time	pelvis_tilt	pelvis_list	pelvis_rotation	pelvis_tx	pelvis_ty	pelvis_tz	hip_flexion_r	hip_adduction_r	hip_rotation_r	knee_angle_r	ankle_angle_r	subtalar_angle_r	mtp_angle_r	hip_flexion_l	hip_adduction_l	hip_rotation_l	knee_angle_l	ankle_angle_l	subtalar_angle_l	mtp_angle_l	lumbar_extension	lumbar_bending	lumbar_rotation	arm_flex_r	arm_add_r	arm_rot_r	elbow_flex_r	pro_sup_r	arm_flex_l	arm_add_l	arm_rot_l	elbow_flex_l	pro_sup_l
      3.78333330	      4.15569817	    -11.95848154	    -55.62865623	      1.16606325	      1.04107792	      3.87723084	     -4.54282826	     16.64240363	      8.45995001	      5.32692549	     -0.36612784	     -1.06383270	      0.00000000	     -7.93401004	      0.11234378	     -5.32869192	     12.38626941	      5.45210700	     -6.22956307	      0.00000000	     -6.94494141	    -10.57345186	     69.07506866	     25.57446142	     10.17043922	     16.56770129	     47.15058502	    119.74817918	    -22.03732604	     14.84539092	     28.03731016	      3.54189895	    101.71627408
      3.80000000	      4.60523394	    -12.01728487	    -56.10986338	      1.16402220	      1.04256122	      3.87901559	     -4.17418449	     16.36326704	      9.13505878	      6.84105107	     -0.07997148	     -0.94409428	      0.00000000	     -9.00031889	      0.68808287	     -4.56001610	     11.74339397	      7.68014224	     -6.26313239	      0.00000000	     -6.96915535	    -11.07176425	     69.16608020	     25.40479438	     10.07941709	     16.69418324	     47.36699066	    119.74817918	    -22.42284455	     14.87176533	     27.71130843	      3.46195946	    101.62951802
      3.81666670	      5.00752184	    -12.10574165	    -56.59672232	      1.16340352	      1.04406927	      3.88047420	     -3.75625632	     16.09448331	      9.47916317	      8.49733884	      0.18457958	     -0.82818654	      0.00000000	     -9.76845014	      1.32056085	     -3.80260447	     11.23137592	      9.09273224	     -6.63365505	      0.00000000	     -6.83679896	    -11.33189616	     69.41502532	     24.91632461	      9.98087852	     16.75217171	     47.48405611	    119.74817918	    -23.04583140	     14.93649020	     27.12580881	      3.57624780	    101.42291301
      3.83333330	      5.41127798	    -11.97961101	    -56.76084572	      1.16256460	      1.04524294	      3.88117984	     -2.44996149	     15.67651392	      8.69779447	     11.17419374	      0.98916965	      0.44135565	      0.00000000	    -10.41308812	      2.08241142	     -2.19535790	     10.31824610	      9.56022673	     -8.22929922	      0.00000000	     -6.69352312	    -11.75569335	     69.61475982	     24.54231351	      9.47892501	     17.53859143	     47.73399854	    119.74817918	    -23.32984241	     15.15172216	     25.25991654	      3.62448795	    100.72680481
      3.85000000	      5.75638827	    -11.99707982	    -56.07787646	      1.16275643	      1.04651714	      3.88055165	     -1.30412673	     15.22261245	      6.68347494	     13.33458874	      1.52405610	      2.33077210	      0.00000000	    -10.88119073	      2.47148414	     -0.10775174	      9.77893846	     10.25956122	     -9.03369102	      0.00000000	     -6.90060638	    -11.86709473	     68.94559883	     24.40197698	      9.20835061	     18.04568963	     46.96105747	    119.74817918	    -23.36800167	     15.48351724	     23.84085121	      3.63504498	    100.37098351
      3.86666670	      5.95685070	    -12.23933667	    -55.90110591	      1.16157843	      1.04759283	      3.88092911	     -0.59365170	     15.26119260	      6.37889988	     15.07455198	      1.19409315	      2.25744795	      0.00000000	    -11.47764007	      2.51088072	      0.58549210	      9.31655363	     11.25836973	     -9.10900654	      0.00000000	     -7.19505354	    -11.74264475	     69.40269252	     24.18738451	      8.81917649	     18.02743744	     46.39805618	    119.74817918	    -23.09236188	     15.55747906	     23.75690936	      3.60963673	    100.37318414
      3.88333330	      6.15366451	    -11.74750818	    -55.49633753	      1.16086524	      1.04702133	      3.88010199	      1.61892953	     14.43612498	      3.71605825	     18.22891162	      2.64920192	      5.29169815	      0.00000000	    -11.02950582	      3.03251200	      2.02215011	      9.41863082	     11.88987631	     -9.98042235	      0.00000000	     -6.97696625	    -12.00496456	     69.54706986	     24.19371420	      8.34056343	     18.39834153	     45.26168062	    119.74817918	    -22.56798450	     15.75752741	     23.36804784	      3.37634662	    100.63472634
      3.90000000	      6.39362677	    -12.02394021	    -55.32598959	      1.16084325	      1.04741761	      3.87969186	      2.21423947	     14.30739229	      3.59185829	     19.91505998	      2.59498229	      5.43574448	      0.00000000	    -11.49042017	      3.14984060	      2.83422627	      9.36407355	     13.06784672	    -10.01182742	      0.00000000	     -7.39244547	    -11.70898682	     69.96443728	     23.89714282	      8.02578792	     18.28763139	     44.08077463	    119.74817918	    -22.21037404	     16.05654279	     23.33812641	      3.13194673	    100.68435029
      3.91666670	      6.50355377	    -11.14177340	    -55.02560635	      1.16024031	      1.04551004	      3.87800290	      4.70941143	     13.22387899	      1.65395316	     22.87942227	      3.77854482	      8.04664905	      0.00000000	    -10.31837519	      3.80725418	      3.47878994	      9.96169698	     13.39047808	    -10.40862604	      0.00000000	     -6.94465638	    -12.09254822	     70.11832810	     24.01756294	      7.67706248	     18.30576597	     42.15751832	    119.74817918	    -21.57435551	     16.47449171	     23.36359802	      2.89127310	    101.20186801
      3.93333330	      6.62788290	    -11.37192454	    -54.77998120	      1.16160337	      1.04516644	      3.87706156	      5.40922585	     13.08576846	      1.75830865	     24.62385505	      3.85256500	      8.24901426	      0.00000000	    -10.54974769	      3.86085303	      3.89636046	     10.10161672	     13.93204276	    -10.51323437	      0.00000000	     -7.32264891	    -11.52758440	     70.57680485	     23.52877581	      7.18310111	     17.94268358	     40.52384738	    119.74817918	    -21.28575848	     16.82012376	     23.42779360	      2.82901369	    101.31713506
